# xmcd
#
# Track frame offsets: 
#        150
#        21472
#        48335
#        62280
#        77388
#        96676
#        111340
#        126910
#        142000
#        168819
#        182017
#        202119
#        217729
#        229991
#        247241
#        266816
#        279854
#        297066
#        315516
#
# Disc length: 4409 seconds
#
# Revision: 0
# Processed by: cddbd v1.5.2PL0 Copyright (c) Steve Scherf et al.
# Submitted via: ExactAudioCopy v0.99pb4
#
DISCID=1a113713
DTITLE=Various Artist - Billboard 1975
DYEAR=2000
DGENRE=Other
TTITLE0=Peter Frampton - Baby, I Love Your Way
TTITLE1=Queen - Bohemian Rhapsody
TTITLE2=KC and the Sunshine Band - That's the Way (I Like It)
TTITLE3=America - Sister Golden Hair
TTITLE4=Michael Jackson - One Day in Your Life
TTITLE5=James Taylor - Handy Man
TTITLE6=John Lennon - Stand by Me
TTITLE7=Barry Manilow - Mandy
TTITLE8=10cc - I'm Not in Love
TTITLE9=Kiss - Rock and Roll All Night
TTITLE10=Gerry Rafferty - Right Down the Line
TTITLE11=Seal and Crofts - Summer Breeze
TTITLE12=Joe Cocker - You Are So Beautiful
TTITLE13=Silver Convention - Fly, Robin, Fly
TTITLE14=Eric Clapton - Knockin' on Heaven's Door
TTITLE15=Roberta Flack - Feel Like Makin' Love
TTITLE16=The Carpenters - Only Yesterday
TTITLE17=Hot Chocolate - You Sexy Thing
TTITLE18=Rod Stewart - Sailing
EXTD=
EXTT0=
EXTT1=
EXTT2=
EXTT3=
EXTT4=
EXTT5=
EXTT6=
EXTT7=
EXTT8=
EXTT9=
EXTT10=
EXTT11=
EXTT12=
EXTT13=
EXTT14=
EXTT15=
EXTT16=
EXTT17=
EXTT18=
PLAYORDER=
